<svg width="64" height="64" viewBox="0 0 24 24" fill="none" xmlns="http://www.w3.org/2000/svg" class=""><defs><linearGradient id="vectorGradient" x1="2" y1="2" x2="22" y2="22"><stop offset="0%" stop-color="#818cf8"></stop> <stop offset="100%" stop-color="#c084fc"></stop> </linearGradient></defs><path d="M12 2L15.09 8.26L22 9.27L17 14.14L18.18 21.02L12 17.77L5.82 21.02L7 14.14L2 9.27L8.91 8.26L12 2Z" stroke="url(#vectorGradient)" stroke-width="1.5" stroke-linecap="round" stroke-linejoin="round" class="opacity-20"></path><path d="M12 2V8" stroke="url(#vectorGradient)" stroke-width="2" stroke-linecap="round"></path><path d="M12 17.77V12" stroke="url(#vectorGradient)" stroke-width="2" stroke-linecap="round"></path><path d="M12 12L15.09 8.26" stroke="url(#vectorGradient)" stroke-width="2" stroke-linecap="round"></path><path d="M12 12L8.91 8.26" stroke="url(#vectorGradient)" stroke-width="2" stroke-linecap="round"></path><path d="M12 12L17 14.14" stroke="url(#vectorGradient)" stroke-width="2" stroke-linecap="round"></path><path d="M12 12L7 14.14" stroke="url(#vectorGradient)" stroke-width="2" stroke-linecap="round"></path><circle cx="12" cy="12" r="2" fill="white" stroke="#c084fc" stroke-width="1"></circle><circle cx="12" cy="2" r="1.5" fill="#818cf8"></circle><circle cx="15.09" cy="8.26" r="1.5" fill="#818cf8"></circle><circle cx="8.91" cy="8.26" r="1.5" fill="#818cf8"></circle><circle cx="17" cy="14.14" r="1.5" fill="#c084fc"></circle><circle cx="7" cy="14.14" r="1.5" fill="#c084fc"></circle></svg>